# xmcd
#
# Track frame offsets:
#	150
#	15860
#	33942
#	46410
#	70305
#	86687
#	99572
#	116832
#	132552
#	146672
#
# Disc length: 2148 seconds
#
# Revision: 1
# Processed by: cddbd v1.5.2PL0 Copyright (c) Steve Scherf et al.
# Submitted via: audiograbber 1.83.01
#
DISCID=8708620a
DTITLE=Tony Roma´s - Famous For Ribs Tony Roma´s
DYEAR=1999
DGENRE=Country
TTITLE0=Kiss Country  - Achy Breaky Heart
TTITLE1=Cañones Y Mantequilla  - I Ain´t Never Satisfeid
TTITLE2=Los Diablos Rojos  - Lo Natural
TTITLE3=Abuelo Jones  - Lonesome Hearts Blues
TTITLE4=Mar and Los Tex  - For The Reason
TTITLE5=Kiss Country  - I´m Down To My Last Cigarrette
TTITLE6=Cañones Y Mantequilla  - Una Noche Más
TTITLE7=Los Diablos Rojos  - Always On My Mind
TTITLE8=Abuelo Jones  - Virgenes Y Rosas
TTITLE9=Mar and Los Tex  - Beneath Still Waters
EXTD=
EXTT0=
EXTT1=
EXTT2=
EXTT3=
EXTT4=
EXTT5=
EXTT6=
EXTT7=
EXTT8=
EXTT9=
PLAYORDER=
